<?xml version="1.0" encoding="UTF-8"?>
<svg width="225px" height="64px" viewBox="0 0 225 64" version="1.1" xmlns="http://www.w3.org/2000/svg" xmlns:xlink="http://www.w3.org/1999/xlink">
    <!-- Generator: Sketch 47.1 (45422) - http://www.bohemiancoding.com/sketch -->
    <title>Office, Business, Rank, Achievement, Three, Star, Stars</title>
    <desc>Created with Sketch.</desc>
    <defs></defs>
    <g id="Page-1" stroke="none" stroke-width="1" fill="none" fill-rule="evenodd">
        <g id="Desktop" transform="translate(-400.000000, -551.000000)" fill-rule="nonzero" fill="#4070B7">
            <g id="Office,-Business,-Rank,-Achievement,-Three,-Star,-Stars" transform="translate(400.000000, 551.000000)">
                <g id="svg2">
                    <g id="layer1" transform="translate(0.000000, 0.043177)">
                        <path d="M33.034867,0.31125601 C31.3095235,0.316824972 30.0810897,1.08571562 29.2186893,1.78740481 C28.3562881,2.48750287 27.7337485,3.2453272 27.132924,4.05600893 C25.9312654,5.67657682 24.8905965,7.54956189 23.8884009,9.41675524 C22.8862109,11.2847442 21.9458339,13.1390891 21.1382807,14.5599699 C20.330733,15.9800552 19.2804821,17.0187382 19.855922,16.5954971 C20.4313524,16.1738471 19.1289075,16.8594022 17.5384049,17.2014956 C15.9479054,17.543589 13.8954503,17.892198 11.821864,18.2891855 C9.74827604,18.6869684 7.66526836,19.1050145 5.76542019,19.7653263 C4.81549532,20.099464 3.91106981,20.4735073 2.98439931,21.0860931 C2.0577296,21.6986789 0.963180997,22.6346146 0.435131087,24.2870051 C-0.0929156598,25.9386001 0.238522211,27.3469507 0.63598234,28.3891422 C1.03344405,29.430538 1.56947482,30.2678235 2.15009368,31.0928254 C3.31133138,32.7428292 4.7414218,34.3121309 6.19802253,35.8475732 C7.65462326,37.3838111 9.13699942,38.863166 10.2305023,40.0740174 C11.3240043,41.2856644 11.9824708,42.6196297 11.7600627,41.9386252 C11.5376531,41.2544385 11.77218,42.6998307 11.605562,44.3315365 C11.4389045,45.9584689 11.1472151,48.0378318 10.8794066,50.1428993 C10.611598,52.2487625 10.3629573,54.3678002 10.4004529,56.3893333 C10.4192007,57.3997021 10.4926904,58.3903329 10.7867063,59.4659381 C11.0807221,60.5423389 11.627985,61.8692395 13.0269723,62.8843817 C14.4259596,63.9003195 15.8587103,63.9990731 16.9667509,63.9409968 C18.0747963,63.8614402 19.0353007,63.6528507 19.9949728,63.3505356 C21.9143116,62.7459055 23.8399921,61.8609656 25.7424143,60.9420869 C27.6448366,60.0240038 29.4966295,59.0660389 30.9800024,58.3937857 C32.4633697,57.7255103 33.9331659,57.4901739 33.2202684,57.4925606 C32.5073701,57.4949473 33.9575776,57.7147463 35.4450844,58.3782483 C36.932589,59.038568 38.7900513,59.9737797 40.6981224,60.8799294 C42.6061982,61.7868746 44.5379896,62.6685844 46.4610138,63.2573033 C47.4225236,63.5516627 48.3808549,63.7920748 49.4892357,63.8477644 C50.5976213,63.927321 52.0363388,63.770865 53.4290144,62.7756119 C54.8216852,61.7509309 55.3510332,60.4040854 55.6383798,59.3260935 C55.9257271,58.2481016 55.9966918,57.2606531 56.0091824,56.2494888 C56.0341795,54.2279556 55.780166,52.1073268 55.4993289,50.0030548 C55.2184919,47.8995783 54.9035513,45.8333662 54.7268238,44.2072293 C54.5500962,42.5802969 54.7750269,41.116185 54.5568723,41.7987806 C54.3386861,42.4829674 55.0004583,41.1490021 56.0864336,39.9341729 C57.172412,38.7161613 58.6409551,37.2216429 60.0880119,35.6766458 C61.535075,34.1316647 62.9540457,32.5643201 64.1050417,30.9063606 C64.6805425,30.0781765 65.1972559,29.2317181 65.588254,28.18714 C65.9792679,27.1425619 66.3274071,25.7334156 65.7891005,24.0850029 C65.2507939,22.4357947 64.1393897,21.5074487 63.2089348,20.8996363 C62.2784808,20.2950062 61.3798639,19.9189978 60.4279148,19.5944069 C58.5240109,18.9420428 56.4320138,18.5467499 54.3560211,18.1648783 C52.2800331,17.7830066 50.2320743,17.4376276 48.6394794,17.1082632 C47.0468844,16.7741255 45.7439103,16.0977433 46.321963,16.5178021 C46.9000118,16.9394521 45.8404844,15.8944046 45.0241537,14.482275 C44.2078277,13.0669631 43.241423,11.21623 42.2276836,9.35460563 C41.2139435,7.49377681 40.1793791,5.63834192 38.9677099,4.02493412 C38.3618717,3.21823022 37.7177793,2.4532458 36.851044,1.75633001 C35.9843134,1.05623195 34.7602058,0.305687048 33.034867,0.31125601 Z M112.139435,0.31125601 C110.414094,0.316824972 109.185663,1.08571562 108.323257,1.78740481 C107.460867,2.48750287 106.838322,3.2453272 106.237499,4.05600893 C105.035837,5.67657682 103.995169,7.54956189 102.992969,9.41675524 C101.990786,11.2847442 101.050406,13.1390891 100.242851,14.5599699 C99.4353045,15.9800552 98.3850568,17.0187382 98.9604951,16.5954971 C99.5359018,16.1738471 98.2334846,16.8594022 96.6429764,17.2014956 C95.0524762,17.543589 93.000021,17.892198 90.9264371,18.2891855 C88.8528452,18.6869684 86.7698399,19.1050145 84.8699933,19.7653263 C83.9200661,20.099464 83.0156398,20.4735073 82.0889693,21.0860931 C81.1622988,21.6986789 80.0677605,22.6346146 79.5397058,24.2870051 C79.0116828,25.9386001 79.3430518,27.3469507 79.7405523,28.3891422 C80.1380528,29.430538 80.6740495,30.2678235 81.2546692,31.0928254 C82.4159085,32.7428292 83.8459926,34.3121309 85.3025925,35.8475732 C86.7591924,37.3838111 88.2415726,38.863166 89.3350746,40.0740174 C90.4285766,41.2856644 91.0870352,42.6196297 90.8646327,41.9386252 C90.6421906,41.2544385 90.8770442,42.6998307 90.7101336,44.3315365 C90.5434602,45.9584689 90.2518254,48.0378318 89.9839773,50.1428993 C89.7161292,52.2487625 89.4675273,54.3678002 89.5050229,56.3893333 C89.524008,57.3997021 89.597243,58.3903329 89.8912747,59.4659381 C90.1853064,60.5423389 90.7325597,61.8692395 92.1315478,62.8843817 C93.5305279,63.9003195 94.9632779,63.9990731 96.0713193,63.9409968 C97.1793687,63.8614402 98.1398722,63.6528507 99.0995452,63.3505356 C101.018883,62.7459055 102.944565,61.8609656 104.846983,60.9420869 C106.749408,60.0240038 108.601199,59.0660389 110.084576,58.3937857 C111.567937,57.7255103 113.037739,57.4901739 112.324841,57.4925606 C111.61195,57.4949473 113.062143,57.7147463 114.549657,58.3782483 C116.037163,59.038568 117.894617,59.9737797 119.802691,60.8799294 C121.710764,61.7868746 123.642561,62.6685844 125.565585,63.2573033 C126.527094,63.5516627 127.485422,63.7920748 128.593803,63.8477644 C129.702185,63.927321 131.140907,63.770865 132.533583,62.7756119 C133.92625,61.7509309 134.455602,60.4040854 134.74295,59.3260935 C135.030258,58.2481016 135.101254,57.2606531 135.113752,56.2494888 C135.139066,54.2279556 134.884721,52.1073268 134.6039,50.0030548 C134.323078,47.8995783 134.008116,45.8333662 133.831396,44.2072293 C133.654676,42.5802969 133.880014,41.116185 133.661448,41.7987806 C133.44327,42.4829674 134.105035,41.1490021 135.191006,39.9341729 C136.276985,38.7161613 137.745522,37.2216429 139.192582,35.6766458 C140.639642,34.1316647 142.05862,32.5643201 143.209615,30.9063606 C143.785101,30.0781765 144.301827,29.2317181 144.692826,28.18714 C145.083839,27.1425619 145.431979,25.7334156 144.893672,24.0850029 C144.355365,22.4357947 143.243954,21.5074487 142.31351,20.8996363 C141.383059,20.2950062 140.484439,19.9189978 139.532486,19.5944069 C137.628582,18.9420428 135.53659,18.5467499 133.460593,18.1648783 C131.384605,17.7830066 129.336651,17.4376276 127.744054,17.1082632 C126.151458,16.7741255 124.848479,16.0977433 125.426535,16.5178021 C126.004552,16.9394521 124.945089,15.8944046 124.128722,14.482275 C123.312402,13.0669631 122.345998,11.21623 121.332257,9.35460563 C120.318516,7.49377681 119.283947,5.63834192 118.072278,4.02493412 C117.466416,3.21823022 116.822347,2.4532458 115.955614,1.75633001 C115.088881,1.05623195 113.864777,0.305687048 112.139435,0.31125601 Z M191.244007,0.31125601 C189.518665,0.316824972 188.290234,1.08571562 187.427828,1.78740481 C186.56543,2.48750287 185.942893,3.2453272 185.34207,4.05600893 C184.140409,5.67657682 183.09974,7.54956189 182.097541,9.41675524 C181.095357,11.2847442 180.154978,13.1390891 179.347423,14.5599699 C178.539876,15.9800552 177.489628,17.0187382 178.065067,16.5954971 C178.640473,16.1738471 177.338056,16.8594022 175.747548,17.2014956 C174.157048,17.543589 172.104593,17.892198 170.031009,18.2891855 C167.957417,18.6869684 165.874411,19.1050145 163.974565,19.7653263 C163.024638,20.099464 162.120211,20.4735073 161.193541,21.0860931 C160.26687,21.6986789 159.172332,22.6346146 158.644277,24.2870051 C158.116254,25.9386001 158.447623,27.3469507 158.845124,28.3891422 C159.242624,29.430538 159.778613,30.2678235 160.359241,31.0928254 C161.52048,32.7428292 162.950564,34.3121309 164.407164,35.8475732 C165.863764,37.3838111 167.346144,38.863166 168.439646,40.0740174 C169.533148,41.2856644 170.191607,42.6196297 169.969204,41.9386252 C169.746762,41.2544385 169.981616,42.6998307 169.814705,44.3315365 C169.648032,45.9584689 169.356397,48.0378318 169.088549,50.1428993 C168.82078,52.2487625 168.572099,54.3678002 168.609594,56.3893333 C168.62858,57.3997021 168.701815,58.3903329 168.995846,59.4659381 C169.289878,60.5423389 169.837123,61.8692395 171.236119,62.8843817 C172.635107,63.9003195 174.067849,63.9990731 175.175891,63.9409968 C176.28394,63.8614402 177.244444,63.6528507 178.204117,63.3505356 C180.123455,62.7459055 182.049137,61.8609656 183.951554,60.9420869 C185.85398,60.0240038 187.70577,59.0660389 189.189147,58.3937857 C190.672508,57.7255103 192.142311,57.4901739 191.429412,57.4925606 C190.716522,57.4949473 192.166714,57.7147463 193.654228,58.3782483 C195.141734,59.038568 196.999189,59.9737797 198.907262,60.8799294 C200.815336,61.7868746 202.747133,62.6685844 204.670157,63.2573033 C205.631665,63.5516627 206.589993,63.7920748 207.698375,63.8477644 C208.806756,63.927321 210.245479,63.770865 211.638154,62.7756119 C213.030822,61.7509309 213.560174,60.4040854 213.847521,59.3260935 C214.134829,58.2481016 214.205825,57.2606531 214.218324,56.2494888 C214.243637,54.2279556 213.989292,52.1073268 213.708471,50.0030548 C213.42765,47.8995783 213.112687,45.8333662 212.935968,44.2072293 C212.759248,42.5802969 212.984585,41.116185 212.766019,41.7987806 C212.547841,42.4829674 213.209606,41.1490021 214.295577,39.9341729 C215.381557,38.7161613 216.850094,37.2216429 218.297153,35.6766458 C219.744213,34.1316647 221.163191,32.5643201 222.314186,30.9063606 C222.889672,30.0781765 223.406399,29.2317181 223.797397,28.18714 C224.188411,27.1425619 224.53655,25.7334156 223.998244,24.0850029 C223.459937,22.4357947 222.348534,21.5074487 221.418082,20.8996363 C220.48763,20.2950062 219.58901,19.9189978 218.637058,19.5944069 C216.733153,18.9420428 214.641162,18.5467499 212.565165,18.1648783 C210.489176,17.7830066 208.441222,17.4376276 206.848626,17.1082632 C205.256029,16.7741255 203.95305,16.0977433 204.531107,16.5178021 C205.109124,16.9394521 204.049661,15.8944046 203.233294,14.482275 C202.416974,13.0669631 201.450569,11.21623 200.436828,9.35460563 C199.423087,7.49377681 198.388518,5.63834192 197.17685,4.02493412 C196.570988,3.21823022 195.926919,2.4532458 195.060186,1.75633001 C194.193453,1.05623195 192.969349,0.305687048 191.244007,0.31125601 Z M33.0543574,4.66440875 C33.8669382,5.85327351 34.7749614,7.3180339 35.7485907,9.10519437 C36.9049509,11.2285704 38.0796922,13.4975872 39.2473523,15.5217403 C40.4150182,17.5458933 41.1083486,19.2410661 43.4758014,20.9598139 C45.84326,22.6785617 47.6714283,22.8152522 49.9494459,23.2931103 C52.2274684,23.7748221 54.7473051,24.1748164 57.1153585,24.6102838 C59.1105741,24.9763945 60.7882131,25.3988172 62.1670455,25.7957477 C61.2932039,26.940295 60.1689025,28.2645882 58.7805441,29.7472972 C57.1299021,31.509399 55.3570592,33.3296338 53.8036959,35.0724672 C52.250327,36.8143371 50.861756,38.0167187 49.9681556,40.8116107 C49.0745611,43.6074661 49.5095535,45.3916977 49.7623459,47.7174024 C50.0151297,50.0440704 50.396203,52.5817861 50.7165538,54.9807109 C50.9862741,57.0010103 51.1187777,58.7319261 51.1655927,60.1741713 C49.8129266,59.6924595 48.227109,59.030732 46.3945552,58.1607604 C44.2180448,57.1260434 41.9363428,55.9851764 39.8086514,55.0371676 C37.6809533,54.0930124 36.1237679,53.1279895 33.204037,53.1366603 C30.2843014,53.1462945 28.7212082,54.1142655 26.5994236,55.0747989 C24.4776331,56.0382225 22.2210055,57.2076069 20.0509402,58.2548484 C18.2256965,59.1315639 16.629033,59.7966923 15.2799017,60.2870749 C15.3176449,58.8438663 15.4154286,57.1168042 15.6728105,55.0936146 C15.9783007,52.6917994 16.3699315,50.1579375 16.6083087,47.830306 C16.8466849,45.5026745 17.257264,43.6957735 16.3463689,40.9056986 C15.4354737,38.1165872 14.0562475,36.9373856 12.4921179,35.2041865 C10.927995,33.4719508 9.12066492,31.6691154 7.45914056,29.9166478 C6.06016815,28.4416462 4.95359742,27.1236538 4.07263916,25.9839236 C5.44900299,25.5696515 7.11244709,25.136554 9.10561649,24.7608284 C11.4709292,24.3080097 13.9777943,23.8925429 16.2528193,23.4060043 C18.5278434,22.9146679 20.3509873,22.7485062 22.7077532,21.0162705 C25.0645143,19.2830714 25.7623902,17.5912321 26.9174925,15.5593716 C28.072594,13.5284746 29.2356444,11.2541397 30.3788347,9.12401004 C31.3421594,7.32818838 32.2487668,5.85905405 33.0543574,4.66440875 Z M112.157545,4.07512303 C112.987393,5.28917828 113.914605,6.78497503 114.908866,8.61000309 C116.089728,10.7783707 117.289362,13.095465 118.481758,15.1625072 C119.674173,17.2295494 120.382179,18.9606407 122.7998,20.7158065 C125.217421,22.4709722 127.084328,22.6105591 129.41061,23.0985424 C131.736902,23.590461 134.310132,23.9989306 136.72836,24.4436251 C138.765853,24.8174931 140.479038,25.2488664 141.887088,25.6542074 C140.994731,26.8230061 139.846611,28.1753594 138.428837,29.689485 C136.743219,31.4889235 134.932806,33.3477267 133.346529,35.1274884 C131.760243,36.9062663 130.342263,38.1341247 129.429725,40.9882368 C128.517216,43.8433327 128.961389,45.6653699 129.219548,48.0403532 C129.477708,50.4163203 129.866874,53.0078068 130.193981,55.4575618 C130.469455,57.5206686 130.604698,59.2882603 130.652534,60.7610647 C129.27121,60.2691461 127.65178,59.5933974 125.780403,58.7049923 C123.557766,57.648351 121.227728,56.4833106 119.054952,55.5152146 C116.882167,54.5510541 115.291987,53.5655836 112.310397,53.5744381 C109.328797,53.5842765 107.732571,54.5727575 105.565831,55.5536433 C103.399082,56.5374806 101.094644,57.7316427 98.8786009,58.8010739 C97.0146778,59.6963658 95.3841938,60.3755874 94.0064694,60.8763606 C94.044621,59.4025723 94.1448425,57.638916 94.4077073,55.5728577 C94.7196704,53.1201512 95.1196366,50.5326 95.3630245,48.1556491 C95.6064125,45.7786981 96.025748,43.9335112 95.0955326,41.0843184 C94.1653172,38.2361093 92.7568856,37.031922 91.1596131,35.2619986 C89.5623505,33.4930591 87.7167303,31.652024 86.0199995,29.8624239 C84.5913866,28.356169 83.4613544,27.01025 82.5617386,25.8463705 C83.9672648,25.4233205 85.665962,24.9810462 87.7013621,24.5973595 C90.1167917,24.1349461 92.6767671,23.7106761 94.9999969,23.2138284 C97.3232268,22.7120812 99.1850075,22.5423988 101.591701,20.7734593 C103.998405,19.003536 104.711078,17.2758488 105.890648,15.2009359 C107.070229,13.1270068 108.257919,10.8044817 109.42533,8.62921743 C110.409065,6.79534467 111.334888,5.29508131 112.157545,4.07512303 Z M191.262494,4.23519209 C192.087664,5.44240479 193.00965,6.92977106 193.998308,8.74451306 C195.172514,10.9006595 196.365387,13.2046944 197.551062,15.2600865 C198.736757,17.3154787 199.440773,19.0368133 201.844768,20.7820868 C204.248763,22.5273602 206.105147,22.6661603 208.418318,23.1513933 C210.731499,23.6405395 213.290226,24.0467069 215.694824,24.488895 C217.720834,24.8606559 219.424364,25.2895979 220.824478,25.6926543 C219.93715,26.8548656 218.795501,28.1995968 217.385718,29.7051887 C215.7096,31.4944853 213.909391,33.3428121 212.332054,35.1125428 C210.754708,36.8812953 209.344721,38.1022335 208.437325,40.9402594 C207.529959,43.7792637 207.971629,45.5910317 208.228334,47.9526293 C208.485038,50.3152052 208.872011,52.8920858 209.197274,55.3280337 C209.471196,57.3795126 209.605676,59.1371419 209.653243,60.6016455 C208.279704,60.1124993 206.669401,59.4405593 204.808571,58.5571613 C202.598461,57.5064754 200.281555,56.3480012 198.121026,55.3853616 C195.960487,54.4266351 194.379269,53.4467189 191.414484,53.4555235 C188.449688,53.4653064 186.862469,54.4482163 184.707931,55.4235737 C182.553404,56.401866 180.261944,57.5892976 178.058391,58.6527013 C176.204973,59.5429473 174.583679,60.2183408 173.213719,60.7162916 C173.251656,59.2508097 173.351322,57.4970936 173.612696,55.4426797 C173.922901,53.003797 174.320613,50.4308296 174.562629,48.0672754 C174.804645,45.7037212 175.22152,43.868934 174.296644,41.0357995 C173.371672,38.2036433 171.971178,37.0062428 170.382908,35.246295 C168.794648,33.4873254 166.95943,31.6566666 165.272262,29.8771529 C163.851701,28.3793874 162.728038,27.0410542 161.833492,25.8837344 C163.231097,25.4630687 164.92022,25.0232872 166.944148,24.641763 C169.345964,24.1819558 171.891511,23.760077 174.201647,23.2660296 C176.511783,22.7671103 178.363071,22.5983843 180.7562,20.8394147 C183.14933,19.0794669 183.857995,17.3615171 185.030918,15.2982986 C186.20385,13.2360585 187.384846,10.9266234 188.545677,8.76361911 C189.523868,6.94008226 190.444473,5.44827454 191.262494,4.23519209 Z" id="path6489-8-8-9-8-7-4"></path>
                    </g>
                </g>
            </g>
        </g>
    </g>
</svg>