<?xml version="1.0" encoding="UTF-8"?>
<svg width="111px" height="96px" viewBox="0 0 111 96" version="1.1" xmlns="http://www.w3.org/2000/svg" xmlns:xlink="http://www.w3.org/1999/xlink">
    <!-- Generator: Sketch 47.1 (45422) - http://www.bohemiancoding.com/sketch -->
    <title>Handshake</title>
    <desc>Created with Sketch.</desc>
    <defs></defs>
    <g id="Page-1" stroke="none" stroke-width="1" fill="none" fill-rule="evenodd">
        <g id="Desktop" transform="translate(-745.000000, -535.000000)" fill-rule="nonzero">
            <g id="Handshake" transform="translate(745.000000, 535.000000)">
                <g id="Calque_1">
                    <path d="M109.046368,29.8131414 L81.4647625,2.23153622 C80.4174465,1.18422014 79.021025,0.609223079 77.5310525,0.609223079 C76.0410799,0.609223079 74.6446585,1.18422014 73.5973424,2.23153622 L70.0538089,5.77506971 C68.5458107,7.28329614 68.0894638,9.44638033 68.6781512,11.356192 C67.0869196,10.8139012 65.4115563,10.5604447 63.7311229,10.6077831 C63.2384965,10.6191918 62.7522589,10.660263 62.2710411,10.7173064 C58.9486077,10.6055014 53.9792184,10.5096685 48.991347,10.6853621 C46.0821357,10.7880401 43.7045685,11.2421053 41.801602,11.8216658 C42.2328498,11.0207771 42.463305,10.119492 42.463305,9.17941741 C42.463305,7.69172659 41.8860262,6.29302342 40.8387101,5.24570734 L37.2951766,1.70445558 C36.2478605,0.657139501 34.8514391,0.0798607033 33.3614665,0.0798607033 C31.8737757,0.0798607033 30.4750725,0.657139501 29.4277565,1.70217385 L1.84820485,29.283779 C-0.321724547,31.4537084 -0.321724547,34.9835515 1.84592311,37.1511992 L5.3894566,40.6947326 C6.43677268,41.7420487 7.83319412,42.3193275 9.32316667,42.3193275 C10.2290152,42.3193275 11.1006378,42.1025628 11.8809909,41.7009775 C12.1798981,45.1121704 13.9436788,51.5717604 21.7494921,59.9229083 L20.4169592,61.2554411 C19.2007948,62.4716056 18.5299649,64.0870735 18.5299649,65.8075012 C18.5299649,67.5279289 19.2007948,69.1433969 20.4169592,70.3595613 C21.9662569,71.908859 24.1156507,72.5021099 26.1258586,72.1370324 C26.0574066,72.5155721 26.0208989,72.903467 26.0208989,73.2984352 C26.0208989,75.0188629 26.6917288,76.6343309 27.9078932,77.8504953 C29.1240576,79.0664315 30.7395256,79.7374896 32.4599533,79.7374896 C32.8524116,79.7374896 33.2403064,79.6987001 33.6167926,79.6302481 C33.5483406,80.009016 33.5118328,80.3966827 33.5118328,80.7893692 C33.5118328,82.5097969 34.1826627,84.1252648 35.3988272,85.3412011 C36.6537811,86.596155 38.3011933,87.2236319 39.9508872,87.2236319 C40.3387821,87.2236319 40.7266769,87.1873524 41.1100083,87.1186722 C41.0396538,87.5019044 41.0037633,87.8906677 41.0027668,88.2803031 C41.0027668,90.0007308 41.6735967,91.6159706 42.8897611,92.832135 C44.1059255,94.0482995 45.7213935,94.7170758 47.4418212,94.7170758 C48.3020351,94.7170758 49.1348681,94.5505092 49.9060943,94.2310664 C50.6773206,93.9116236 51.3846582,93.4413581 51.9938813,92.832135 L53.2967516,91.526983 L55.6286842,93.8589155 C55.6309659,93.8614254 55.6334758,93.8657607 55.6355294,93.8680424 C56.8904833,95.1229964 58.5399491,95.7504733 60.1898712,95.7504733 C61.8372834,95.7504733 63.4869774,95.1229964 64.7419313,93.8680424 C65.9672226,92.6404693 66.5946996,91.03892 66.6220804,89.4277873 C67.5294627,89.8901177 68.5334503,90.1309497 69.5518273,90.1305615 C71.2012931,90.1305615 72.8512153,89.5030846 74.1084509,88.2481307 C75.3337423,87.0205576 75.9589375,85.4190082 75.9886,83.8078756 C76.8957426,84.273323 77.9010482,84.5150657 78.9206287,84.5129315 C80.6410564,84.5129315 82.2588061,83.8443833 83.4749705,82.6282189 C85.6565368,80.4445991 85.9417536,77.0721957 84.3260574,74.57826 C85.9164263,74.494064 87.3995537,73.8344146 88.5333475,72.7006208 C91.0432553,70.190713 91.0432553,66.1041267 88.5310657,63.5942189 L86.776412,61.8372834 C92.8207264,55.1449565 96.7523829,49.5159178 98.4636837,45.1007617 C98.8878581,44.0032475 99.1276684,43.0951172 99.250882,42.3467083 C99.9673466,42.6729964 100.754545,42.8464082 101.568896,42.8464082 C103.056815,42.8464082 104.45529,42.2714111 105.502606,41.224095 L109.04614,37.6805615 C111.214015,35.5106321 111.214015,31.9830708 109.046368,29.8131414 Z M11.6436905,39.0815464 C11.0276223,39.6976147 10.2039161,40.0375931 9.32316667,40.0375931 C8.44469894,40.0375931 7.62099283,39.6976147 7.00264281,39.0815464 L3.46139105,35.538013 C2.18133807,34.25796 2.18133807,32.1770182 3.46139105,30.8969652 L31.0407145,3.31764179 C31.6590645,2.69929177 32.4827706,2.36159508 33.3612384,2.36159508 C34.2419878,2.36159508 35.0656939,2.69929177 35.6817622,3.31764179 L39.2252957,6.85889354 C39.8403999,7.47414431 40.1845347,8.30943095 40.1813424,9.17941741 C40.1813424,10.0601669 39.841364,10.883873 39.2252957,11.4999413 L11.6436905,39.0815464 Z M22.0301454,68.7463751 C21.2452288,67.9614585 20.8116993,66.9187059 20.8116993,65.8075012 C20.8116993,64.6962966 21.2452288,63.653544 22.0301454,62.8686273 L24.1247776,60.7717134 C24.1293411,60.7694317 24.1316228,60.76715 24.1361863,60.7648682 C24.1407497,60.7603048 24.1430315,60.7557413 24.1475949,60.7511778 L29.1788192,55.7199535 C29.9637359,54.9350369 31.0064885,54.5015074 32.1176931,54.5015074 C32.6721546,54.5015074 33.2106439,54.6108025 33.708062,54.8163867 C34.2077618,55.0215146 34.6641087,55.3274952 35.056567,55.7199535 C36.6765984,57.3399849 36.6765984,59.97516 35.056567,61.5954196 L35.056567,61.5977013 L27.9078932,68.7463751 C26.28558,70.3664065 23.6501768,70.3664065 22.0301454,68.7463751 Z M35.3965454,76.2373091 C34.6139105,77.0219975 33.5688762,77.4534735 32.4599533,77.4557552 C31.3487486,77.4557552 30.305996,77.0222257 29.5210794,76.2373091 C28.7361628,75.4523924 28.3026332,74.4096398 28.3026332,73.2984352 C28.3026332,72.1872305 28.7361628,71.1444779 29.5210794,70.3595613 L36.6697532,63.2108875 L36.6697532,63.2083776 C38.2920663,61.5906279 40.9274696,61.5906279 42.547501,63.2108875 C44.1675324,64.8309189 44.1675324,67.4686039 42.547501,69.0886353 L40.4368967,71.1992396 C40.4346149,71.1992396 40.4346149,71.1992396 40.4346149,71.2015213 L35.3965454,76.2373091 Z M37.0120134,83.728243 C36.2270967,82.9433264 35.7935672,81.9005738 35.7935672,80.7893692 C35.7935672,79.6781645 36.2270967,78.6354119 37.0120134,77.8504953 L39.1226177,75.739891 L39.1226177,75.7373811 L42.8692255,71.993055 C44.4869752,70.3753053 47.1178149,70.3730235 48.7378463,71.9841562 C48.7401281,71.9887197 48.7424098,71.9907732 48.7469733,71.9955649 L48.7720724,72.0204358 C50.3647229,73.6427489 50.3578777,76.2576165 48.7469733,77.8710309 L46.7573009,79.8584215 L44.9980837,81.6176387 L42.8897611,83.728243 C41.2697297,85.3482744 38.6320448,85.3482744 37.0120134,83.728243 L37.0120134,83.728243 Z M50.3806951,91.2194052 C49.5934967,92.0040936 48.5507441,92.4355696 47.4418212,92.4355696 C46.885078,92.4355696 46.3465887,92.3280999 45.8491706,92.122972 C45.3517525,91.9153342 44.8954056,91.6118635 44.5029473,91.2194052 C43.7208932,90.4416271 43.282198,89.383501 43.2845012,88.2805313 C43.2845012,87.1693267 43.7180307,86.126574 44.5029473,85.3414292 L46.6112699,83.2308249 L46.6135516,83.2308249 L48.7241559,81.1202206 C49.5090726,80.3355322 50.5518252,79.9042844 51.6607481,79.9017745 L51.6630298,79.9017745 C52.7719527,79.9017745 53.8147053,80.335304 54.6019037,81.1202206 C55.3828332,81.8986606 55.8206301,82.9566835 55.8180681,84.0593227 C55.8180681,85.1702992 55.3845386,86.2130518 54.6019037,86.9981966 L50.3806951,91.2194052 L50.3806951,91.2194052 Z M63.1287451,92.2553126 C61.5109954,93.8730623 58.8778739,93.875344 57.2555608,92.2598761 C57.253279,92.2575943 57.253279,92.2553126 57.2509973,92.2530308 L54.9122196,89.9142531 L56.2150899,88.6113828 C57.4289726,87.3952184 58.0998025,85.7799786 58.0998025,84.0595509 C58.0998025,82.3391231 57.4292008,80.7236552 56.2150899,79.5074908 C54.9989255,78.2913264 53.3811758,77.6202683 51.6630298,77.6202683 L51.6607481,77.6202683 C51.6584663,77.6202683 51.6584663,77.6227782 51.6561846,77.6227782 C51.9710639,76.935748 52.1581662,76.2058211 52.219773,75.4688209 L63.1515624,86.4006103 C64.7485483,88.0224671 64.7419313,90.6418982 63.1287451,92.2553126 L63.1287451,92.2553126 Z M86.9178795,65.2076333 C88.5401927,66.8297182 88.5401927,69.4676313 86.9178795,71.0876628 C86.1403904,71.8701477 85.082076,72.3089209 83.9790056,72.3061089 C82.8769951,72.3092199 81.8195491,71.8712877 81.0424135,71.0899445 L63.7947833,53.8448242 C63.3491186,53.3998277 62.6272618,53.3998277 62.1815971,53.8448242 C61.7368781,54.2905146 61.7368781,55.0120918 62.1815971,55.4577823 L79.4246638,72.6987954 C79.4246638,72.7010771 79.4246638,72.7010771 79.4269456,72.7010771 C79.4294555,72.7033589 79.4317372,72.7079223 79.4360725,72.7102041 L81.8592744,75.1356877 C83.4815876,76.7557191 83.4815876,79.3934041 81.8592744,81.0157172 C81.074586,81.8006338 80.0316052,82.2318816 78.9204005,82.2318816 C77.8091959,82.2318816 76.7666714,81.8006338 75.9815266,81.0157172 L56.3038494,61.3382681 C56.090353,61.1235463 55.8000534,61.0028134 55.4972563,61.0028134 C55.1944591,61.0028134 54.9041595,61.1235463 54.6906632,61.3382681 C54.4759551,61.5517254 54.3552277,61.8419873 54.3552277,62.1447471 C54.3552277,62.447507 54.4759551,62.7377689 54.6906632,62.9512261 L72.4881913,80.7487543 L72.4948083,80.7555995 C74.1150679,82.3779126 74.1150679,85.0133158 72.4948083,86.6333472 C70.8727234,88.2556604 68.2348103,88.2579421 66.6147788,86.6358572 L64.7939548,84.8150331 C64.7757009,84.799061 64.759957,84.7785254 64.7417031,84.7627814 L64.7277845,84.7488628 L50.412183,70.4357712 C50.3939291,70.4175174 50.377957,70.3992635 50.3597031,70.3810096 C49.0522693,69.0712941 47.3158695,68.4483806 45.5977235,68.5031422 C46.5012903,66.1917453 46.0221261,63.4605092 44.1602308,61.598614 C42.6086514,60.0470346 40.4546942,59.4560654 38.4444862,59.8211429 C38.8118454,57.8109349 38.2208762,55.6592594 36.6692969,54.10768 C35.4531324,52.8915156 33.8353828,52.2206857 32.1172368,52.2206857 L32.114955,52.2206857 C30.396809,52.2206857 28.7813411,52.8912874 27.5651767,54.10768 L23.362222,58.308353 C13.9820119,48.2413409 14.0116745,41.2774876 14.1440151,39.8080507 L37.2283218,16.723744 C37.2625478,16.6895179 40.7285023,13.2600712 49.0705232,12.9680092 C51.3180316,12.8881485 53.5632582,12.8653311 55.6533269,12.8744581 C51.3933288,15.1014308 48.4886809,18.2114348 48.1623929,18.5719488 L30.5154592,36.2188825 C28.0055514,38.7287903 28.0055514,42.8130948 30.5154592,45.3230027 C33.0276488,47.8351922 37.1119533,47.8351922 39.6218611,45.3252844 C39.6264246,45.3230027 39.6264246,45.3184392 39.6309881,45.3161575 L50.3870839,34.5577799 C52.0093971,32.9377485 54.647082,32.9377485 56.2671134,34.5577799 L86.9178795,65.2076333 L86.9178795,65.2076333 Z M85.1586623,60.2218155 L57.880756,32.943681 C55.3708482,30.4337731 51.2865436,30.4337731 48.7743541,32.943681 L38.0091313,43.7111855 L38.0022861,43.7180307 C36.3799729,45.3312169 33.7491332,45.3289352 32.1291018,43.7089038 C30.5090704,42.0888724 30.5090704,39.4511874 32.1291018,37.831156 L49.7965711,20.1636867 C49.8102615,20.1499963 49.8239519,20.1363059 49.8376423,20.1203338 C49.8969674,20.0541635 55.4894984,13.9413971 62.3780545,13.0036042 C64.6166641,13.0789015 66.238749,13.1701708 66.7751848,13.2021151 L66.8413551,13.2043969 C69.2463031,13.7748304 71.5141189,15.1073633 73.6064693,17.1951503 L93.0813004,36.6697532 L97.0626987,40.6513797 C97.1904759,41.5823273 97.2062198,46.8599789 85.1586623,60.2218155 L85.1586623,60.2218155 Z M107.4309,36.0650936 L103.88942,39.6086271 C103.27107,40.2269771 102.447592,40.5646738 101.568896,40.5646738 C100.688375,40.5646738 99.8644404,40.2269771 99.2483721,39.6109088 L98.8924215,39.2526765 L75.230836,15.5933727 C75.2277302,15.5882708 75.2238856,15.5836573 75.2194274,15.5796823 L71.6667669,12.0293036 C70.3889957,10.7492507 70.3889957,8.66830891 71.6667669,7.38825592 L75.2103004,3.84472243 C75.8263687,3.22865415 76.6500748,2.89095746 77.5308243,2.89095746 C78.409292,2.89095746 79.2329981,3.22865415 79.8513482,3.84700416 L107.430672,31.4263276 C108.710953,32.7063806 108.710953,34.7873223 107.4309,36.0650936 L107.4309,36.0650936 Z" id="Shape" fill="#4070B7"></path>
                    <path d="M40.1813424,9.17941741 C40.1813424,10.0601669 39.841364,10.883873 39.2252957,11.4999413 L11.6436905,39.0815464 C11.0276223,39.6976147 10.2039161,40.0375931 9.32316667,40.0375931 C8.44469894,40.0375931 7.62099283,39.6976147 7.00264281,39.0815464 L3.46139105,35.538013 C2.18133807,34.25796 2.18133807,32.1770182 3.46139105,30.8969652 L31.0407145,3.31764179 C31.6590645,2.69929177 32.4827706,2.36159508 33.3612384,2.36159508 C34.2419878,2.36159508 35.0656939,2.69929177 35.6817622,3.31764179 L39.2252957,6.85889354 C39.8403999,7.47414431 40.1845347,8.30943095 40.1813424,9.17941741 L40.1813424,9.17941741 Z" id="Shape" fill="#F2F2F2"></path>
                    <path d="M107.4309,36.0650936 L103.88942,39.6086271 C103.27107,40.2269771 102.447592,40.5646738 101.568896,40.5646738 C100.688375,40.5646738 99.8644404,40.2269771 99.2483721,39.6109088 L98.8924215,39.2526765 L75.230836,15.5933727 C75.2277302,15.5882708 75.2238856,15.5836573 75.2194274,15.5796823 L71.6667669,12.0293036 C70.3889957,10.7492507 70.3889957,8.66830891 71.6667669,7.38825592 L75.2103004,3.84472243 C75.8263687,3.22865415 76.6500748,2.89095746 77.5308243,2.89095746 C78.409292,2.89095746 79.2329981,3.22865415 79.8513482,3.84700416 L107.430672,31.4263276 C108.710953,32.7063806 108.710953,34.7873223 107.4309,36.0650936 L107.4309,36.0650936 Z" id="Shape" fill="#F2F2F2"></path>
                    <g id="Group" opacity="0.1" transform="translate(13.918580, 12.777713)" fill="#000000">
                        <path d="M83.1566686,27.873439 L79.177552,23.8920407 L59.7004392,4.41720958 C57.6080887,2.3296508 55.3402729,0.99688975 52.9376066,0.426456155 L52.8689264,0.424174421 C52.3327188,0.39223014 50.7129156,0.300960765 48.4720243,0.22566353 C45.5993207,0.618350017 42.9499989,1.9095835 40.8350593,3.28775107 C37.8802133,5.21148132 35.9658381,7.30383175 35.9316121,7.34262123 C35.9179217,7.35859337 35.9042313,7.37228378 35.8905409,7.38574601 L35.803835,7.47268009 L18.2230716,25.0534435 C17.000062,26.2762249 16.7011548,28.081305 17.3261218,29.5895314 C17.5330389,29.087183 17.8379558,28.6310875 18.2230716,28.2478716 L35.8905409,10.5801741 C35.9042313,10.5664837 35.9179217,10.5530215 35.9316121,10.5370494 C35.9909372,10.4708791 41.5836964,4.35811266 48.4720243,3.42031983 C50.7126874,3.49561707 52.3327188,3.58688644 52.8689264,3.61883073 L52.9376066,3.62111246 C55.3400448,4.19154605 57.6080887,5.5243071 59.7004392,7.61186589 L79.177552,27.086697 L82.7277025,30.6391292 C83.2319658,29.069296 83.2020751,28.2022369 83.1566686,27.873439 L83.1566686,27.873439 Z" id="Shape"></path>
                        <path d="M35.1649494,3.38358391 C35.7445099,3.3630483 36.3215605,3.34730433 36.8990675,3.33338575 C38.1608666,2.29976008 39.8128423,1.106413 41.7477531,0.0958328439 C39.6576844,0.0867059064 37.4124577,0.10952325 35.1651776,0.18915578 C26.8229285,0.481217781 23.3572021,3.91089273 23.3229761,3.94489057 L0.238441243,27.0294255 C0.197370024,27.497181 0.165425742,28.5191698 0.441515602,30.0205511 L23.322748,7.1393187 C23.356974,7.10532086 26.8229285,3.67587408 35.1649494,3.38358391 Z" id="Shape"></path>
                    </g>
                </g>
            </g>
        </g>
    </g>
</svg>