<?xml version="1.0" encoding="UTF-8"?>
<svg width="144px" height="152px" viewBox="0 0 144 152" version="1.1" xmlns="http://www.w3.org/2000/svg" xmlns:xlink="http://www.w3.org/1999/xlink">
    <!-- Generator: Sketch 47.1 (45422) - http://www.bohemiancoding.com/sketch -->
    <title>Group 3@3x</title>
    <desc>Created with Sketch.</desc>
    <defs></defs>
    <g id="Page-1" stroke="none" stroke-width="1" fill="none" fill-rule="evenodd">
        <g id="Desktop" transform="translate(-148.000000, -514.000000)">
            <g id="Group-3" transform="translate(149.000000, 514.000000)">
                <g id="App">
                    <g id="Layer_1">
                        <g id="Group">
                            <path d="M106.233533,93.3792453 L106.233533,103.957811 C106.233533,110.856396 100.635664,116.448113 93.72949,116.448113 L52.6681412,116.448113 C45.7619671,116.448113 40.1640986,110.856396 40.1640986,103.957811 L40.1640986,13.0576415 C40.1640986,6.1590566 45.7619671,0.567339623 52.6681412,0.567339623 L93.728385,0.567339623 C100.634559,0.567339623 106.232428,6.1590566 106.232428,13.0576415 L106.232428,37.3737736 L106.233533,93.3792453 Z" id="Shape" stroke="#3D6CB4" stroke-linecap="round" stroke-linejoin="round"></path>
                            <path d="M40.1640986,13.245283 L40.1640986,13.0576415 C40.1640986,6.1590566 45.7619671,0.567339623 52.6681412,0.567339623 L93.728385,0.567339623 C100.634559,0.567339623 106.232428,6.1590566 106.232428,13.0576415 L106.232428,13.245283 L40.1640986,13.245283 Z" id="Shape" stroke="#3D6CB4" stroke-linecap="round" stroke-linejoin="round"></path>
                            <path d="M39.9806707,13.245283 L39.9806707,13.0576415 C39.9806707,6.1590566 45.5785391,0.567339623 52.4847132,0.567339623 L93.544957,0.567339623 C100.451131,0.567339623 106.049,6.1590566 106.049,13.0576415 L106.049,13.245283 L39.9806707,13.245283 Z" id="Shape" fill="#528AC8" fill-rule="nonzero" opacity="0.3"></path>
                            <path d="M106.233533,103.771274 L106.233533,103.958915 C106.233533,110.8575 100.635664,116.449217 93.72949,116.449217 L52.6681412,116.449217 C45.7619671,116.449217 40.1640986,110.8575 40.1640986,103.958915 L40.1640986,103.771274 L106.233533,103.771274 Z" id="Shape" stroke="#3D6CB4" stroke-linecap="round" stroke-linejoin="round"></path>
                            <path d="M106.233533,103.771274 L106.233533,103.958915 C106.233533,110.8575 100.635664,116.449217 93.72949,116.449217 L52.6681412,116.449217 C45.7619671,116.449217 40.1640986,110.8575 40.1640986,103.958915 L40.1640986,103.771274 L106.233533,103.771274 Z" id="Shape" fill="#528AC8" fill-rule="nonzero" opacity="0.3"></path>
                            <path d="M67.341275,110.79017 L79.0563562,110.79017" id="Shape" stroke="#3D6CB4" fill="#FFFFFF" fill-rule="nonzero" stroke-linecap="round" stroke-linejoin="round"></path>
                            <path d="M67.341275,6.90631132 L79.0563562,6.90631132" id="Shape" stroke="#3D6CB4" fill="#FFFFFF" fill-rule="nonzero" stroke-linecap="round" stroke-linejoin="round"></path>
                            <g transform="translate(0.000000, 33.113208)" id="Shape" stroke="#3D6CB4" stroke-linecap="round" stroke-linejoin="round">
                                <path d="M7.21336073,0.579481132 L7.21336073,12.8644811"></path>
                                <path d="M14.0963301,6.72198113 L0.329286381,6.72198113"></path>
                            </g>
                            <g transform="translate(17.679806, 62.915094)" id="Shape" stroke="#3D6CB4" stroke-linecap="round" stroke-linejoin="round">
                                <path d="M4.63431907,0.899575472 L4.63431907,9.13262264"></path>
                                <path d="M8.75592378,5.01554717 L0.513819354,5.01554717"></path>
                            </g>
                            <path d="M49.0172613,27.1031604 L88.7968242,27.1031604" id="Shape" stroke="#3D6CB4" stroke-linecap="round" stroke-linejoin="round"></path>
                            <path d="M49.0172613,39.2446698 L76.6419578,39.2446698" id="Shape" stroke="#3D6CB4" stroke-linecap="round" stroke-linejoin="round"></path>
                            <g transform="translate(128.178591, 8.830189)" id="Shape" stroke="#3D6CB4" stroke-linecap="round" stroke-linejoin="round">
                                <path d="M7.12164674,0.504424528 L7.12164674,12.7894245"></path>
                                <path d="M14.0046161,6.64692453 L0.237572389,6.64692453"></path>
                            </g>
                        </g>
                    </g>
                </g>
                <g id="Group-2" transform="translate(72.000000, 69.000000)">
                    <path d="M20.25,68.5 L50.25,67.5 L49.25,81 L20.25,81 L20.25,68.5 Z M2.25,33 L1.25,32 C0.916666667,31.6666667 0.916666667,30.6666667 1.25,29 L3.75,27 L7.25,27.5 L10.75,29.5 L14.25,34 L18.25,37 C17.5833333,34.3333333 17.25,32.8333333 17.25,32.5 C17.25,32 17.75,28 17.75,27.5 C17.75,27 17.75,22.5 17.75,21 C17.75,19.5 17.75,14 17.75,14 C17.75,14 17.75,6.5 17.75,6.5 C17.75,6.5 18.25,5.5 19.25,3.5 C20.5833333,2.5 21.4166667,2 21.75,2 C22.0833333,2 23.0833333,2.16666667 24.75,2.5 L24.75,6.5 L25.25,16.5 L25.25,21.5 L29.75,19.5 L31.25,20 L34.25,24.5 L34.25,23.5 L37.25,22.5 L39.75,22.5 L42.75,27.5 L45.75,24.5 L48.75,25.5 L50.25,27.5 L49.75,35.5 C50.0833333,44.1666667 50.25,48.5 50.25,48.5 C50.25,48.5 50.25,53.5 49.75,53.5 C49.4166667,53.5 48.5833333,55.1666667 47.25,58.5 L47.25,63.5 L47.25,67 L23.75,67 L23.75,65 C23.75,62.3333333 23.75,60.8333333 23.75,60.5 C23.75,60.1666667 23.0833333,59 21.75,57 C19.75,55.6666667 18.5833333,54.8333333 18.25,54.5 C17.9166667,54.1666667 16.25,52.1666667 13.25,48.5 L10.25,42.5 L2.25,33 Z" id="Combined-Shape" fill="#FFFFFF"></path>
                    <g id="Hand,-Finger,-Pointing,-Up,-Sky,-Thumb,-Handsup" fill-rule="nonzero" fill="#7093C8">
                        <g id="svg2">
                            <g id="layer1" transform="translate(0.000000, 0.714087)">
                                <path d="M21.6414474,0.0075921875 L21.6414474,0.0233392713 C18.6905578,0.0233392713 16.2730263,2.44397058 16.2730263,5.39833933 L16.2730263,33.0239489 L9.50483242,26.2474607 C7.4162415,24.1563167 3.99162962,24.1563167 1.90306339,26.2474607 C-0.185354937,28.3388732 -0.185485389,31.7674003 1.90306339,33.858544 L1.96597457,33.9162823 L2.03937082,33.9740232 C5.73401079,36.7870294 7.78956392,41.1363612 10.3646173,45.8263174 C12.819666,50.2977799 15.957084,54.9755323 21.4736842,58.4397198 L21.4736842,65.4734125 L20.8288456,65.4734125 C19.7233669,65.4734125 18.7894737,66.4085711 18.7894737,67.5152836 L18.7894737,79.5617927 C18.7894737,80.6685052 19.7233669,81.5984125 20.8288456,81.5984125 L48.7928649,81.5984125 C49.8983409,81.5984125 50.8322368,80.6685052 50.8322368,79.5617927 L50.8322368,67.5152836 C50.8322368,66.4085711 49.8983409,65.4734125 48.7928649,65.4734125 L48.3157895,65.4734125 L48.3157895,61.5943852 C48.3157895,56.9479664 50.8783623,52.4136648 51,47.6844711 L51,47.6529789 L51,28.1895987 C51,25.2352299 48.5824685,22.814599 45.6315789,22.814599 C44.3580096,22.814599 43.2836007,23.4292638 42.3601974,24.1793451 C41.6826194,21.9868826 39.9826149,20.2110833 37.5789474,20.2110833 C36.3267658,20.2110833 35.2008711,20.6864096 34.291839,21.4131099 C33.5380161,19.3539471 31.9183607,17.6915521 29.6101974,17.6915521 C28.6296821,17.6915521 27.8065716,18.1531302 27.0098684,18.6153802 L27.0098684,5.38259219 C27.0098684,2.42822344 24.5923369,0.0075921875 21.6414474,0.0075921875 Z M21.6414474,2.7055901 C23.1517157,2.7055901 24.3256579,3.88110287 24.3256579,5.3930901 L24.3256579,22.2372065 L26.9836544,22.5049068 C27.2327492,21.2796755 28.277001,20.3895503 29.6101974,20.3895503 C31.1204657,20.3895503 32.2944079,21.564794 32.2944079,23.0770503 L32.2944079,24.8407221 L34.9524044,25.1136714 C35.2030828,23.8809151 36.2842667,22.9143305 37.5789474,22.9143305 C39.0892157,22.9143305 40.2631579,24.0895742 40.2631579,25.6018291 L40.2631579,28.2000961 L42.9473684,28.2000961 C42.9473684,26.6881086 44.1213106,25.5125961 45.6315789,25.5125961 C47.1418473,25.5125961 48.3157895,26.6881086 48.3157895,28.2000961 L48.3157895,47.6162354 C48.2210905,51.2983792 45.6315789,56.0417414 45.6315789,61.5943852 L45.6315789,65.4734125 L24.1578947,65.4734125 L24.1578947,57.0697263 L23.4868421,56.6812992 C18.0375055,53.5312805 15.2370821,49.122082 12.7185437,44.535057 C10.2283748,39.9997019 8.06153511,35.2665118 3.80088398,31.9531495 C2.73489486,30.8859433 2.73476441,29.2098328 3.80088398,28.1423578 C4.86680196,27.0748828 6.5410611,27.0748828 7.60701076,28.1423578 L18.9572368,39.5064946 L18.9572368,5.3930901 C18.9572368,3.88110287 20.131179,2.7055901 21.6414474,2.7055901 Z M21.4736842,68.1609125 L48.1480263,68.1609125 L48.1480263,78.9109125 L21.4736842,78.9109125 L21.4736842,68.1609125 Z" id="path3831"></path>
                            </g>
                        </g>
                    </g>
                </g>
            </g>
        </g>
    </g>
</svg>